<?xml version="1.0" standalone="no"?><!DOCTYPE svg PUBLIC "-//W3C//DTD SVG 1.1//EN" "http://www.w3.org/Graphics/SVG/1.1/DTD/svg11.dtd"><svg t="1639110277793" class="icon" viewBox="0 0 1119 1024" version="1.1" xmlns="http://www.w3.org/2000/svg" p-id="1157" width="34.96875" height="32" xmlns:xlink="http://www.w3.org/1999/xlink"><defs><style type="text/css"></style></defs><path d="M559.39709 1023.99273a80.827334 80.827334 0 0 1-59.016783-26.087129L92.822373 553.99675A326.089113 326.089113 0 0 1 559.610919 98.327307 326.944428 326.944428 0 0 1 784.986608 7.663843a326.516771 326.516771 0 0 1 240.343713 106.914463 324.164652 324.164652 0 0 1 0 440.487588l-406.27496 443.908851a81.041163 81.041163 0 0 1-59.658271 25.017985zM334.021402 50.429628a283.323328 283.323328 0 0 0-208.910861 474.700216L532.026988 969.894011a38.061549 38.061549 0 0 0 54.954034 0l406.27496-443.908851a282.040354 282.040354 0 0 0 0-382.753778 283.323328 283.323328 0 0 0-417.821722 0 23.307353 23.307353 0 0 1-16.250998 7.270183 21.382893 21.382893 0 0 1-16.03717-6.414867A285.247788 285.247788 0 0 0 334.021402 50.429628z" p-id="1158"></path><path d="M495.462241 664.760133a21.382893 21.382893 0 0 1-19.244603-11.974419L381.063766 456.704588l-70.563546 126.372896a21.382893 21.382893 0 0 1-18.603116 10.905275H31.881129a21.382893 21.382893 0 1 1 0-42.765785h247.400068l85.53157-151.177051a21.382893 21.382893 0 0 1 37.84772 1.069144l85.531571 178.333325L563.246011 247.15224a21.382893 21.382893 0 0 1 21.382893-16.678656 21.382893 21.382893 0 0 1 21.382892 15.395683l85.531571 304.920049h395.583514a21.382893 21.382893 0 0 1 0 42.765785H676.361513a21.382893 21.382893 0 0 1-21.382892-15.395683l-68.425257-240.343713L516.203647 649.150622a21.382893 21.382893 0 0 1-18.389287 16.464827z" fill="#24D1AF" p-id="1159"></path></svg>